<?xml version="1.0" encoding="utf-8" ?>
<svg baseProfile="full" height="200mm" version="1.1" viewBox="0,0,200,200" width="200mm" xmlns="http://www.w3.org/2000/svg" xmlns:ev="http://www.w3.org/2001/xml-events" xmlns:xlink="http://www.w3.org/1999/xlink"><defs /><rect fill="#1a1a1a" height="200" width="200" x="0" y="0" /><text alignment-baseline="middle" fill="#e1ed5e" style="dominant-baseline: central; font-size:9.0px; font-family:Arial;" text-anchor="middle" x="100.0" y="100.0">2020</text><line stroke="#e1ed5e" stroke-width="0.3" x1="100.0" x2="100.0" y1="15.0" y2="10.0" /><path d="M 100.0 14.0 a86.0,86.0 0 0,1 42.35913384403234,11.155469271406648" fill="none" id="id37" stroke="none" /><text fill="#e1ed5e" style="font-size:6.75px; font-family:Arial;" text-anchor="middle"><textPath startOffset="22.145653131862478" xlink:href="#id37">January</textPath></text><line stroke="#e1ed5e" stroke-width="0.3" x1="143.13028292997686" x2="145.6673583964461" y1="26.7553504044142" y2="22.446841604673864" /><path d="M 143.63769802327073 25.89364864446614 a86.0,86.0 0 0,1 29.32050498858742,28.57503671076993" fill="none" id="id38" stroke="none" /><text fill="#e1ed5e" style="font-size:6.75px; font-family:Arial;" text-anchor="middle"><textPath startOffset="20.669276256404974" xlink:href="#id38">February</textPath></text><line stroke="#e1ed5e" stroke-width="0.3" x1="172.87174338648825" x2="177.1583165268699" y1="56.24261187166439" y2="53.66864786411523" /><path d="M 173.72905801456457 55.72781907015455 a86.0,86.0 0 0,1 12.242430191666344,42.057860355516425" fill="none" id="id39" stroke="none" /><text fill="#e1ed5e" style="font-size:6.75px; font-family:Arial;" text-anchor="middle"><textPath startOffset="22.145653131862474" xlink:href="#id39">March</textPath></text><path d="M 120.98066250479742 99.09900007780936 l 32.41293776943478 -1.3919510121071283 a53.442812184910196,53.442812184910196 0 0,0 0.03149388231223439,0.9169100206809266 l -32.432056338743855 0.8353347268620817" fill="#ff0e01" stroke="none" /><line stroke="#e1ed5e" stroke-width="0.3" x1="184.99686870605535" x2="189.99668451229388" y1="99.2704041080226" y2="99.22748670261217" /><path d="M 185.99683186730306 99.26182062694052 a86.0,86.0 0 0,1 -10.086455211305974,41.156179273409016" fill="none" id="id40" stroke="none" /><text fill="#e1ed5e" style="font-size:6.75px; font-family:Arial;" text-anchor="middle"><textPath startOffset="21.40746469413373" xlink:href="#id40">April</textPath></text><path d="M 120.99922638620191 99.81974689727618 l 31.967465207694346 -0.27440224148872255 a52.968642892610916,52.968642892610916 0 0,0 0.0,0.909310688425095 l -31.967465207694346 -0.27440224148871867" fill="#ff0000" stroke="none" /><path d="M 120.99922638620191 100.18025310272382 l 32.54012165267257 0.27931780833407377 a53.54132043431524,53.54132043431524 0 0,0 -0.01577829160977978,0.9190063844589107 l -32.53053192946412 -0.8378711087620556" fill="#ff1101" stroke="none" /><path d="M 120.99303781780057 100.54070618675476 l 38.86426667867261 1.0010056485977679 a59.877155718744476,59.877155718744476 0 0,0 -0.035285644940860346,1.0273030524372795 l -38.8413563467349 -1.668014965599158" fill="#ffbd11" stroke="none" /><path d="M 120.98066250479742 100.90099992219065 l 33.17431930326745 1.4246480111930169 a54.2048954702607,54.2048954702607 0 0,0 -0.047902700171460116,0.9292995860171304 l -33.14497501363942 -1.993919390586878" fill="#ff2403" stroke="none" /><path d="M 120.96210409425399 101.26102812881392 l 36.28730434150844 2.182954119859401 a57.35290559312513,57.35290559312513 0 0,0 -0.06755636666894485,0.9822547447820279 l -36.24448401367443 -2.8055522887957727" fill="#ff7b0b" stroke="none" /><path d="M 120.93736805541906 101.62068470465957 l 33.38753256006952 2.5844061776629554 a54.487407868344256,54.487407868344256 0 0,0 -0.08019087551433973,0.9319395280651075 l -33.33824806185744 -3.1571667531037204" fill="#ff2c04" stroke="none" /><path d="M 120.592083275326 104.11899336999214 l 32.87345243686742 6.5756111621039945 a54.52465566227595,54.52465566227595 0 0,0 -0.1914653773833098,0.9162311420259547 l -32.75572934865974 -7.138958755415358" fill="#ff2d04" stroke="none" /><path d="M 120.51834098615036 104.47187691870673 l 40.4324979696746 8.812074746115602 a62.38163304412803,62.38163304412803 0 0,0 -0.23701794072461566,1.0443447795776524 l -40.27526916739232 -9.504853859632272" fill="#fffc17" stroke="none" /><path d="M 120.43855184770803 104.8234425847677 l 52.217106094755486 12.323094858553846 a74.6515128938958,74.6515128938958 0 0,0 -0.3050490938440872,1.2447044011424269 l -51.9978694743951 -13.217655084304374" fill="#36ff6d" stroke="none" /><path d="M 120.35273937422433 105.17358676015961 l 60.03934482003449 15.261766671221178 a82.94872434801059,82.94872434801059 0 0,0 -0.3626459737607697,1.3770258307201346 l -59.768509365468994 -16.290173006314117" fill="#4ae5ff" stroke="none" /><path d="M 120.26092885502905 105.52220625578681 l 45.31402169898263 12.350538116561689 a67.96697088704478,67.96697088704478 0 0,0 -0.3164720429742085,1.123047634958069 l -45.09533116393384 -13.126593675422766" fill="#82ff25" stroke="none" /><path d="M 120.16314734710363 105.8691983318838 l 41.11751981902801 11.968710766164385 a63.82406418676607,63.82406418676607 0 0,0 -0.3152412766559964,1.049335683319159 l -40.906002222368386 -12.672784053074267" fill="#e0ff1b" stroke="none" /><line stroke="#e1ed5e" stroke-width="0.3" x1="174.33088141563837" x2="178.70328620479359" y1="141.23008692659167" y2="143.65538615756765" /><path d="M 175.20536237346943 141.71514677278685 a86.0,86.0 0 0,1 -30.301960400862466,31.631185727798858" fill="none" id="id41" stroke="none" /><text fill="#e1ed5e" style="font-size:6.75px; font-family:Arial;" text-anchor="middle"><textPath startOffset="22.145653131862474" xlink:href="#id41">May</textPath></text><path d="M 117.81537515405839 111.11811171558189 l 53.44612546217515 33.35433514674567 a84.0,84.0 0 0,0 -0.7739292334964403,1.2167453012853122 l -52.865678537052815 -34.26689412270965" fill="#4dd2ff" stroke="none" /><line stroke="#e1ed5e" stroke-width="0.3" x1="143.1302829299769" x2="145.66735839644613" y1="173.24464959558577" y2="177.55315839532614" /><path d="M 143.63769802327073 174.10635135553383 a86.0,86.0 0 0,1 -40.68552437913181,11.842963189579606" fill="none" id="id42" stroke="none" /><text fill="#e1ed5e" style="font-size:6.75px; font-family:Arial;" text-anchor="middle"><textPath startOffset="21.407464694133747" xlink:href="#id42">June</textPath></text><line stroke="#e1ed5e" stroke-width="0.3" x1="101.45913802915013" x2="101.54496967792366" y1="184.9874750549273" y2="189.98673829345242" /><path d="M 101.47630435890484 185.9873277026323 a86.0,86.0 0 0,1 -42.54439059252881,-10.42667462771756" fill="none" id="id43" stroke="none" /><text fill="#e1ed5e" style="font-size:6.75px; font-family:Arial;" text-anchor="middle"><textPath startOffset="22.145653131862474" xlink:href="#id43">July</textPath></text><line stroke="#e1ed5e" stroke-width="0.3" x1="58.13341422392154" x2="55.67067388415222" y1="173.97424548756322" y2="178.32567169271397" /><path d="M 57.64086615596768 174.84453072859336 a86.0,86.0 0 0,1 -31.369924170532247,-30.572349798747897" fill="none" id="id44" stroke="none" /><text fill="#e1ed5e" style="font-size:6.75px; font-family:Arial;" text-anchor="middle"><textPath startOffset="22.145653131862474" xlink:href="#id44">August</textPath></text><line stroke="#e1ed5e" stroke-width="0.3" x1="26.387840678322732" x2="22.057713659400548" y1="142.50000000000003" y2="145.00000000000006" /><path d="M 25.521815274538298 143.00000000000003 a86.0,86.0 0 0,1 -11.493303480769221,-40.785679425670985" fill="none" id="id45" stroke="none" /><text fill="#e1ed5e" style="font-size:6.75px; font-family:Arial;" text-anchor="middle"><textPath startOffset="21.40746469413373" xlink:href="#id45">September</textPath></text><line stroke="#e1ed5e" stroke-width="0.3" x1="15.003131293944662" x2="10.003315487706104" y1="100.72959589197737" y2="100.7725132973878" /><path d="M 14.003168132696942 100.73817937305945 a86.0,86.0 0 0,1 10.791469493833604,-42.45332614584628" fill="none" id="id46" stroke="none" /><text fill="#e1ed5e" style="font-size:6.75px; font-family:Arial;" text-anchor="middle"><textPath startOffset="22.145653131862435" xlink:href="#id46">October</textPath></text><line stroke="#e1ed5e" stroke-width="0.3" x1="26.387840678322718" x2="22.05771365940052" y1="57.49999999999999" y2="54.99999999999999" /><path d="M 25.521815274538284 56.99999999999999 a86.0,86.0 0 0,1 29.574782752854787,-30.34633250058573" fill="none" id="id47" stroke="none" /><text fill="#e1ed5e" style="font-size:6.75px; font-family:Arial;" text-anchor="middle"><textPath startOffset="21.40746469413373" xlink:href="#id47">November</textPath></text><line stroke="#e1ed5e" stroke-width="0.3" x1="56.869717070023135" x2="54.33264160355391" y1="26.7553504044142" y2="22.446841604673864" /><path d="M 56.362301976729285 25.89364864446614 a86.0,86.0 0 0,1 42.16139366436587,-11.88097634709845" fill="none" id="id48" stroke="none" /><text fill="#e1ed5e" style="font-size:6.75px; font-family:Arial;" text-anchor="middle"><textPath startOffset="22.145653131862474" xlink:href="#id48">December</textPath></text></svg>