<?xml version="1.0" encoding="utf-8" ?>
<svg baseProfile="full" height="200mm" version="1.1" viewBox="0,0,200,200" width="200mm" xmlns="http://www.w3.org/2000/svg" xmlns:ev="http://www.w3.org/2001/xml-events" xmlns:xlink="http://www.w3.org/1999/xlink"><defs /><rect fill="#1a1a1a" height="200" width="200" x="0" y="0" /><text alignment-baseline="middle" fill="#e1ed5e" style="dominant-baseline: central; font-size:9.0px; font-family:Arial;" text-anchor="middle" x="100.0" y="100.0">2022</text><line stroke="#e1ed5e" stroke-width="0.3" x1="100.0" x2="100.0" y1="15.0" y2="10.0" /><path d="M 100.0 14.0 a86.0,86.0 0 0,1 42.46469731375804,11.215312516191453" fill="none" id="id1" stroke="none" /><text fill="#e1ed5e" style="font-size:6.75px; font-family:Arial;" text-anchor="middle"><textPath startOffset="22.20632615414155" xlink:href="#id1">January</textPath></text><line stroke="#e1ed5e" stroke-width="0.3" x1="143.23703022742887" x2="145.7803849466894" y1="26.81831364943548" y2="22.513508569990506" /><path d="M 143.74570117128098 25.957352633546492 a86.0,86.0 0 0,1 28.547481713284135,27.462654790039103" fill="none" id="id2" stroke="none" /><text fill="#e1ed5e" style="font-size:6.75px; font-family:Arial;" text-anchor="middle"><textPath startOffset="19.985693538727396" xlink:href="#id2">February</textPath></text><line stroke="#e1ed5e" stroke-width="0.3" x1="172.23445277983987" x2="176.4835382374775" y1="55.19839476539836" y2="52.563006222186495" /><path d="M 173.08426987136738 54.67131705675599 a86.0,86.0 0 0,1 12.851231095245387,41.99856678651699" fill="none" id="id3" stroke="none" /><text fill="#e1ed5e" style="font-size:6.75px; font-family:Arial;" text-anchor="middle"><textPath startOffset="22.20632615414155" xlink:href="#id3">March</textPath></text><line stroke="#e1ed5e" stroke-width="0.3" x1="184.98032266829074" x2="189.97916517819016" y1="98.17113171792111" y2="98.06355123074" /><path d="M 185.9800911702706 98.14961562048488 a86.0,86.0 0 0,1 -9.607161424134198,41.387399972396054" fill="none" id="id4" stroke="none" /><text fill="#e1ed5e" style="font-size:6.75px; font-family:Arial;" text-anchor="middle"><textPath startOffset="21.466115282336823" xlink:href="#id4">April</textPath></text><line stroke="#e1ed5e" stroke-width="0.3" x1="174.80103733775053" x2="179.2010983576182" y1="140.37084112569926" y2="142.7455964860345" /><path d="M 175.68104954172406 140.8457921977663 a86.0,86.0 0 0,1 -30.038265399797805,32.042727171017184" fill="none" id="id5" stroke="none" /><text fill="#e1ed5e" style="font-size:6.75px; font-family:Arial;" text-anchor="middle"><textPath startOffset="22.206326154141568" xlink:href="#id5">May</textPath></text><path d="M 113.20401910651253 116.32954008644616 l 10.773576679983243 13.323788071725552 a38.13456398802534,38.13456398802534 0 0,0 -0.5139858383476811,0.40834143548134916 l -10.542633348918212 -13.507263421212027" fill="#ff4d07" stroke="none" /><path d="M 112.92097659922987 116.55440617244103 l 15.107052572095379 19.355215329605407 a45.5529508994631,45.5529508994631 0 0,0 -0.6222777593048775,0.4771360505500636 l -14.771646084297007 -19.612390721982845" fill="#ffc712" stroke="none" /><path d="M 112.63410532772338 116.77436683061366 l 12.734474120386732 16.907626994496148 a42.166829750999895,42.166829750999895 0 0,0 -0.5835387845448665,0.4316880423642333 l -12.441550365423302 -17.12432498560015" fill="#ff900d" stroke="none" /><path d="M 112.34349029814194 116.9893568818739 l 12.598509623195115 17.34036087024785 a42.43386479000375,42.43386479000375 0 0,0 -0.5946250848311206,0.42424920975180147 l -12.29815721051511 -17.554654341843868" fill="#ff950d" stroke="none" /><path d="M 112.04921762599082 117.19931262002967 l 12.204546073216946 17.421031789319407 a42.27071445574296,42.27071445574296 0 0,0 -0.5995257753673813,0.4123592950655718 l -11.902863413226683 -17.628531873750074" fill="#ff920d" stroke="none" /><path d="M 111.45004920935366 117.60387380957326 l 11.61920907783916 17.863948585149767 a42.31024820708136,42.31024820708136 0 0,0 -0.6139382185051868,0.3918444185314588 l -11.309989057287043 -18.061307432505032" fill="#ff930d" stroke="none" /><path d="M 111.1453310114006 117.79835938074945 l 11.221964162814828 17.92073747503437 a42.14439195911298,42.14439195911298 0 0,0 -0.6181594918863026,0.37972404843664476 l -10.911825470996217 -18.111249990299395" fill="#ff900d" stroke="none" /><line stroke="#e1ed5e" stroke-width="0.3" x1="143.8653032363475" x2="146.44561519142675" y1="172.8068346515853" y2="177.08958963109032" /><path d="M 144.38136562736335 173.6633856474863 a86.0,86.0 0 0,1 -40.68145358897372,12.25698825130547" fill="none" id="id6" stroke="none" /><text fill="#e1ed5e" style="font-size:6.75px; font-family:Arial;" text-anchor="middle"><textPath startOffset="21.466115282336833" xlink:href="#id6">June</textPath></text><path d="M 110.5260780823613 118.17145234162733 l 10.628570079934594 18.348387039881406 a42.20447615267514,42.20447615267514 0 0,0 -0.6317632914303942,0.35873168488326723 l -10.311158021583001 -18.5286218905593" fill="#ff910d" stroke="none" /><path d="M 110.21172684928248 118.3499491758327 l 6.664415680347296 11.97561302078776 a34.70509918184178,34.70509918184178 0 0,0 -0.5245050853406003,0.2860019926200981 l -6.457287783138047 -12.088555665167629" fill="#ff1001" stroke="none" /><path d="M 109.89434966115114 118.52300852407294 l 9.668510574136493 18.100219813636908 a41.52067381993494,41.52067381993494 0 0,0 -0.633307121797863,0.3313163541815897 l -9.355512549812135 -18.263965586763216" fill="#ff860c" stroke="none" /><path d="M 108.59647513512805 119.15986991738527 l 5.236731237602279 11.671654687252596 a33.79261025722839,33.79261025722839 0 0,0 -0.5327635526436497,0.23354788500139237 l -5.035047010300876 -11.760067125548442" fill="#ff0000" stroke="none" /><path d="M 107.2578585660854 119.70592522655815 l 7.324583584712156 19.887091367483468 a42.19306319879385,42.19306319879385 0 0,0 -0.6836892420791876,0.24514663771148587 l -6.981174782003234 -20.010225546234913" fill="#ff910d" stroke="none" /><path d="M 106.57524785965236 119.94407469862006 l 13.207289888033971 40.0604177539256 a63.181388986205775,63.181388986205775 0 0,0 -1.0358096959741427,0.3316335548588205 l -12.515758846968888 -40.28182415544413" fill="#41ff2d" stroke="none" /><path d="M 105.88484417918355 120.15858648285463 l 6.151415157349307 21.071727757891598 a42.95125552538547,42.95125552538547 0 0,0 -0.7114953851455448,0.20107570277744033 l -5.787788604099156 -21.174492254007557" fill="#ff9d0e" stroke="none" /><path d="M 104.83641907484287 120.43548508189849 l 4.846720455657504 20.479011854641477 a42.044729167129596,42.044729167129596 0 0,0 -0.7057104693165436,0.1606174052204162 l -4.493489836948099 -20.55940599343958" fill="#ff8e0d" stroke="none" /><path d="M 104.48393922423573 120.51570834832081 l 4.554094118059764 20.83669337263203 a42.32856216300654,42.32856216300654 0 0,0 -0.7131527008899556,0.14944808232532172 l -4.19474995574043 -20.911997435683894" fill="#ff930d" stroke="none" /><path d="M 103.7750983002368 120.6578951692458 l 7.562761903874349 41.38454953355832 a63.069897880910474,63.069897880910474 0 0,0 -1.0696385237828117,0.1859703680629027 l -6.849274408619487 -41.50859848014223" fill="#43ff2d" stroke="none" /><path d="M 102.70371172650421 120.8252237178851 l 2.7308390006024164 21.03417038420814 a42.21070025716053,42.21070025716053 0 0,0 -0.7213458464806174,0.0873449362765526 l -2.3683657310704187 -21.07806084921004" fill="#ff910d" stroke="none" /><path d="M 101.98527174616119 120.90594882070398 l 2.6651756484040314 28.06569217108946 a49.19195343141723,49.19195343141723 0 0,0 -0.8436553118913516,0.07279413022640284 l -2.1816760187711384 -28.107410553594523" fill="#fffe18" stroke="none" /><path d="M 101.62511606390274 120.93702456842531 l 3.9099424676402164 50.373363062770395 a71.5248785882157,71.5248785882157 0 0,0 -1.2283111785560146,0.084711530417173 l -3.0422685283052715 -50.433202937703854" fill="#3aff92" stroke="none" /><line stroke="#e1ed5e" stroke-width="0.3" x1="102.19456741930631" x2="102.32365962044197" y1="184.97166512339345" y2="189.96999836594603" /><path d="M 102.22038585953345 185.97133177190398 a86.0,86.0 0 0,1 -42.740103519485714,-10.115201625700543" fill="none" id="id7" stroke="none" /><text fill="#e1ed5e" style="font-size:6.75px; font-family:Arial;" text-anchor="middle"><textPath startOffset="22.20632615414155" xlink:href="#id7">July</textPath></text><path d="M 100.18074693466247 120.99922214144158 l 0.21804378751305578 25.33237943480794 a46.3333178032873,46.3333178032873 0 0,0 -0.7975814443510051,0.0 l 0.21804378751303835 -25.33237943480794" fill="#ffd313" stroke="none" /><path d="M 99.45781275523022 120.99299961872073 l -0.553289346624632 21.422862958838348 a42.43000668348604,42.43000668348604 0 0,0 -0.7299570425263039,-0.02514119647356213 l 0.921966740825579 -21.41016496393869" fill="#ff950d" stroke="none" /><path d="M 99.09653310690486 120.98055641714683 l -0.9298801465021851 21.593932244752956 a42.613944269333174,42.613944269333174 0 0,0 -0.7325782063424716,-0.037865925461453155 l 1.3014464212581456 -21.574726512529303" fill="#ff980e" stroke="none" /><path d="M 98.01472825383883 120.90594882070398 l -1.4067828069222543 14.81415802155643 a35.88080359904991,35.88080359904991 0 0,0 -0.6143603515150028,-0.06368096240244778 l 1.6615757550428503 -14.787747690698223" fill="#ff2503" stroke="none" /><path d="M 97.2962882734958 120.8252237178851 l -5.4761582800914566 42.17987449605291 a63.5338702919378,63.5338702919378 0 0,0 -1.0833172591803482,-0.15013790091304258 l 6.201404130458636 -42.079362029647264" fill="#3dff2e" stroke="none" /><path d="M 96.93821686468263 120.77559828337769 l -2.612534657199634 17.72724198304642 a38.91871774599267,38.91871774599267 0 0,0 -0.6619223911053025,-0.10337866436912875 l 2.9172929119134534 -17.679645011330184" fill="#ff5a08" stroke="none" /><path d="M 96.58105272829116 120.7198165907248 l -3.4633328516226385 20.988806136921305 a42.27262695330302,42.27262695330302 0 0,0 -0.716925693714153,-0.12464672145713099 l 3.824107516808841 -20.926080836943168" fill="#ff920d" stroke="none" /><path d="M 92.06813273071674 119.44442032107085 l -10.212110918710772 25.034278856099967 a48.037054707586506,48.037054707586506 0 0,0 -0.7629394641267565,-0.318908757881208 l 10.641521842334992 -24.854785055198786" fill="#ffed16" stroke="none" /><path d="M 91.7346041902142 119.30500536409082 l -7.456146823620397 17.414889466638968 a39.94393044198161,39.94393044198161 0 0,0 -0.629743311535681,-0.2760609613272538 l 7.754810809813821 -17.283963952017263" fill="#ff6b09" stroke="none" /><path d="M 91.07499286063937 119.00905698771935 l -17.926885558298356 38.18183939452049 a63.18087345431911,63.18087345431911 0 0,0 -0.9804688706401137,-0.47068464090240697 l 18.581467096938713 -37.86760047711852" fill="#41ff2d" stroke="none" /><line stroke="#e1ed5e" stroke-width="0.3" x1="58.666819895761336" x2="56.23545636021788" y1="174.27360380694188" y2="178.64263932499728" /><path d="M 58.180547188652646 175.14741091055294 a86.0,86.0 0 0,1 -31.652253787137756,-30.449443065178592" fill="none" id="id8" stroke="none" /><text fill="#e1ed5e" style="font-size:6.75px; font-family:Arial;" text-anchor="middle"><textPath startOffset="22.20632615414155" xlink:href="#id8">August</textPath></text><path d="M 89.7882731507175 118.34994917583269 l -8.347121128491688 14.999348370065722 a38.16551434301651,38.16551434301651 0 0,0 -0.571303642610171,-0.32440111838323665 l 8.604073538023068 -14.853444085887851" fill="#ff4d07" stroke="none" /><path d="M 89.1626897886671 117.98757091392108 l -16.103511304023357 26.72831596546349 a52.204582206279554,52.204582206279554 0 0,0 -0.7657189132560851,-0.47036709703972024 l 16.56120941721175 -26.447160401595394" fill="#d3ff1c" stroke="none" /><path d="M 88.24862548938628 117.40417183066458 l -11.832857216426248 17.52485039570461 a42.145611632113145,42.145611632113145 0 0,0 -0.597751441332492,-0.4111388919371291 l 12.13276554238163 -17.31857071440238" fill="#ff900d" stroke="none" /><path d="M 86.79598089348748 116.32954008644616 l -26.73370169419925 33.06183139792674 a63.517943290561064,63.517943290561064 0 0,0 -0.844274064085717,-0.6947800768568888 l 27.298845886829657 -32.596756202212674" fill="#3dff2e" stroke="none" /><path d="M 86.51685102203217 116.09983520530335 l -14.279090088756199 17.050245286639562 a43.23967801244861,43.23967801244861 0 0,0 -0.5665108668055511,-0.4827928508824821 l 14.570466432138806 -16.801928045534126" fill="#ffa20e" stroke="none" /><path d="M 86.24171649860922 115.8653595955263 l -11.944993159090192 13.774364499460301 a39.23227848993931,39.23227848993931 0 0,0 -0.5063909094093543,-0.44683110049229985 l 12.180326421406134 -13.566710257195712" fill="#ff5f08" stroke="none" /><path d="M 85.97065885151581 115.62618273729859 l -42.08802344545257 46.878548211895755 a84.0,84.0 0 0,0 -1.0676018021325815,-0.9752289336536961 l 42.888724797052014 -46.14712651165548" fill="#4dd2ff" stroke="none" /><path d="M 85.44109423537348 115.13401014063109 l -16.740843489504652 17.40213854178901 a45.147262092579126,45.147262092579126 0 0,0 -0.5554189196057294,-0.5435943130207811 l 17.037912361486175 -17.11139412584566" fill="#ffc011" stroke="none" /><line stroke="#e1ed5e" stroke-width="0.3" x1="26.63291911575756" x2="22.317208475507996" y1="142.92168965132927" y2="145.44649492493687" /><path d="M 25.769776987707644 143.4266507060508 a86.0,86.0 0 0,1 -11.730757126820373,-40.83630448921669" fill="none" id="id9" stroke="none" /><text fill="#e1ed5e" style="font-size:6.75px; font-family:Arial;" text-anchor="middle"><textPath startOffset="21.46611528233685" xlink:href="#id9">September</textPath></text><line stroke="#e1ed5e" stroke-width="0.3" x1="15.007084014347285" x2="10.007500721073583" y1="101.09737516637583" y2="101.16192664675087" /><path d="M 14.007167355692545 101.11028546245083 a86.0,86.0 0 0,1 10.666146001902534,-42.60595125391555" fill="none" id="id10" stroke="none" /><text fill="#e1ed5e" style="font-size:6.75px; font-family:Arial;" text-anchor="middle"><textPath startOffset="22.20632615414155" xlink:href="#id10">October</textPath></text><line stroke="#e1ed5e" stroke-width="0.3" x1="26.266209847984243" x2="21.928928074336255" y1="57.711370442889674" y2="55.22380399835377" /><path d="M 25.398753493254645 57.213857153982495 a86.0,86.0 0 0,1 29.58750427330803,-30.492523968695096" fill="none" id="id11" stroke="none" /><text fill="#e1ed5e" style="font-size:6.75px; font-family:Arial;" text-anchor="middle"><textPath startOffset="21.46611528233685" xlink:href="#id11">November</textPath></text><line stroke="#e1ed5e" stroke-width="0.3" x1="56.762969772571076" x2="54.21961505331055" y1="26.818313649435495" y2="22.513508569990535" /><path d="M 56.25429882871897 25.957352633546506 a86.0,86.0 0 0,1 42.265352541879196,-11.944610805530505" fill="none" id="id12" stroke="none" /><text fill="#e1ed5e" style="font-size:6.75px; font-family:Arial;" text-anchor="middle"><textPath startOffset="22.20632615414155" xlink:href="#id12">December</textPath></text></svg>