<?xml version="1.0" encoding="utf-8" ?>
<svg baseProfile="full" height="200mm" version="1.1" viewBox="0,0,200,200" width="200mm" xmlns="http://www.w3.org/2000/svg" xmlns:ev="http://www.w3.org/2001/xml-events" xmlns:xlink="http://www.w3.org/1999/xlink"><defs /><rect fill="#1a1a1a" height="200" width="200" x="0" y="0" /><text alignment-baseline="middle" fill="#e1ed5e" style="dominant-baseline: central; font-size:9.0px; font-family:Arial;" text-anchor="middle" x="100.0" y="100.0">2022</text><line stroke="#e1ed5e" stroke-width="0.3" x1="100.0" x2="100.0" y1="15.0" y2="10.0" /><path d="M 100.0 14.0 a86.0,86.0 0 0,1 42.46469731375804,11.215312516191453" fill="none" id="id1" stroke="none" /><text fill="#e1ed5e" style="font-size:6.75px; font-family:Arial;" text-anchor="middle"><textPath startOffset="22.20632615414155" xlink:href="#id1">January</textPath></text><line stroke="#e1ed5e" stroke-width="0.3" x1="143.23703022742887" x2="145.7803849466894" y1="26.81831364943548" y2="22.513508569990506" /><path d="M 143.74570117128098 25.957352633546492 a86.0,86.0 0 0,1 28.547481713284135,27.462654790039103" fill="none" id="id2" stroke="none" /><text fill="#e1ed5e" style="font-size:6.75px; font-family:Arial;" text-anchor="middle"><textPath startOffset="19.985693538727396" xlink:href="#id2">February</textPath></text><line stroke="#e1ed5e" stroke-width="0.3" x1="172.23445277983987" x2="176.4835382374775" y1="55.19839476539836" y2="52.563006222186495" /><path d="M 173.08426987136738 54.67131705675599 a86.0,86.0 0 0,1 12.851231095245387,41.99856678651699" fill="none" id="id3" stroke="none" /><text fill="#e1ed5e" style="font-size:6.75px; font-family:Arial;" text-anchor="middle"><textPath startOffset="22.20632615414155" xlink:href="#id3">March</textPath></text><line stroke="#e1ed5e" stroke-width="0.3" x1="184.98032266829074" x2="189.97916517819016" y1="98.17113171792111" y2="98.06355123074" /><path d="M 185.9800911702706 98.14961562048488 a86.0,86.0 0 0,1 -9.607161424134198,41.387399972396054" fill="none" id="id4" stroke="none" /><text fill="#e1ed5e" style="font-size:6.75px; font-family:Arial;" text-anchor="middle"><textPath startOffset="21.466115282336823" xlink:href="#id4">April</textPath></text><line stroke="#e1ed5e" stroke-width="0.3" x1="174.80103733775053" x2="179.2010983576182" y1="140.37084112569926" y2="142.7455964860345" /><path d="M 175.68104954172406 140.8457921977663 a86.0,86.0 0 0,1 -30.038265399797805,32.042727171017184" fill="none" id="id5" stroke="none" /><text fill="#e1ed5e" style="font-size:6.75px; font-family:Arial;" text-anchor="middle"><textPath startOffset="22.206326154141568" xlink:href="#id5">May</textPath></text><path d="M 113.20401910651253 116.32954008644616 l 10.704147847913815 13.237924753345947 a38.024142648757596,38.024142648757596 0 0,0 -0.5124975558370216,0.4071590538446134 l -10.474692799359442 -13.420217721195687" fill="#ff4c07" stroke="none" /><path d="M 112.92097659922987 116.55440617244103 l 15.009697251086637 19.23048330841104 a45.39472278679045,45.39472278679045 0 0,0 -0.6201162783586643,0.4754787191307832 l -14.67645224423448 -19.486001369369195" fill="#ffc512" stroke="none" /><path d="M 112.63410532772338 116.77436683061366 l 12.652408554655015 16.798668119448227 a42.030423030012344,42.030423030012344 0 0,0 -0.5816510777232045,0.43029156198626406 l -12.361372506513245 -17.01396963017426" fill="#ff8f0d" stroke="none" /><path d="M 112.34349029814194 116.9893568818739 l 12.517320261951781 17.22861330129792 a42.295737198461296,42.295737198461296 0 0,0 -0.5926895050472637,0.42286822496885024 l -12.218903429055633 -17.44152578811099" fill="#ff930d" stroke="none" /><path d="M 112.04921762599082 117.19931262002967 l 12.125895555847412 17.308764347734837 a42.133638264074094,42.133638264074094 0 0,0 -0.5975816229878248,0.41102208933118495 l -11.826157048236704 -17.514927226431116" fill="#ff910d" stroke="none" /><path d="M 111.45004920935366 117.60387380957326 l 11.544330684172209 17.748826827236293 a42.17291724559331,42.17291724559331 0 0,0 -0.6119454926429106,0.3905725666035932 l -11.237103389482368 -17.944913822663693" fill="#ff910d" stroke="none" /><path d="M 111.1453310114006 117.79835938074945 l 11.149645759327077 17.805249748936298 a42.008129835386974,42.008129835386974 0 0,0 -0.6161608457734927,0.37849631675362483 l -10.841505713621277 -17.994534532518298" fill="#ff8f0d" stroke="none" /><line stroke="#e1ed5e" stroke-width="0.3" x1="143.8653032363475" x2="146.44561519142675" y1="172.8068346515853" y2="177.08958963109032" /><path d="M 144.38136562736335 173.6633856474863 a86.0,86.0 0 0,1 -40.68145358897372,12.25698825130547" fill="none" id="id6" stroke="none" /><text fill="#e1ed5e" style="font-size:6.75px; font-family:Arial;" text-anchor="middle"><textPath startOffset="21.466115282336833" xlink:href="#id6">June</textPath></text><path d="M 110.5260780823613 118.17145234162733 l 10.56007572294088 18.23014338502316 a42.06782682463355,42.06782682463355 0 0,0 -0.6297177731080483,0.3575701861950903 l -10.244709182911633 -18.409216737012876" fill="#ff900d" stroke="none" /><path d="M 110.21172684928248 118.3499491758327 l 6.621467770766684 11.89843783096491 a34.61677855649562,34.61677855649562 0 0,0 -0.5231702781155351,0.28527414929349926 l -6.415674680782501 -12.01065263201818" fill="#ff1001" stroke="none" /><path d="M 109.89434966115114 118.52300852407294 l 9.606203188488008 17.983575438311153 a41.38843116191006,41.38843116191006 0 0,0 -0.6312900491102703,0.3302611170841838 l -9.295222236851242 -18.146265974340054" fill="#ff850c" stroke="none" /><path d="M 108.59647513512805 119.15986991738527 l 5.202983843910477 11.596438315074247 a33.710170041164496,33.710170041164496 0 0,0 -0.5314638264000544,0.23297812321163355 l -5.002599342852669 -11.684280991580334" fill="#ff0000" stroke="none" /><path d="M 107.2578585660854 119.70592522655815 l 7.277381313935515 19.758931744368915 a42.0564874199627,42.0564874199627 0 0,0 -0.6814761913159495,0.24435311644436344 l -6.936185561989831 -19.881272401853238" fill="#ff900d" stroke="none" /><path d="M 106.57524785965236 119.94407469862006 l 13.122177326164682 39.80225390551339 a62.909556830611635,62.909556830611635 0 0,0 -1.0313532193603818,0.33020673177798726 l -12.43510276171336 -40.022233483951084" fill="#44ff2d" stroke="none" /><path d="M 105.88484417918355 120.15858648285463 l 6.11177320903121 20.93593390860907 a42.80979368046105,42.80979368046105 0 0,0 -0.7091520438716579,0.20041345112643658 l -5.750489997054946 -21.038036153074025" fill="#ff9c0e" stroke="none" /><path d="M 104.83641907484287 120.43548508189849 l 4.81548643276996 20.347037681417703 a41.909109306549226,41.909109306549226 0 0,0 -0.7034341232119374,0.1600993162581545 l -4.46453216016516 -20.426913731253542" fill="#ff8d0d" stroke="none" /><path d="M 104.48393922423573 120.51570834832081 l 4.524745885328604 20.70241417009584 a42.19111317975021,42.19111317975021 0 0,0 -0.7108369568950061,0.14896279565562295 l -4.167717467004219 -20.777232946478" fill="#ff920d" stroke="none" /><path d="M 103.7750983002368 120.6578951692458 l 7.5140247257020585 41.117852500142035 a62.79878421439909,62.79878421439909 0 0,0 -1.0650405518220492,0.18517095170039 l -6.80513520240796 -41.241102030363436" fill="#45ff2d" stroke="none" /><path d="M 102.70371172650421 120.8252237178851 l 2.7132404845280162 20.898618568251024 a42.07401081873425,42.07401081873425 0 0,0 -0.7190099373849174,0.08706209021580771 l -2.353103124091718 -20.942226187192183" fill="#ff900d" stroke="none" /><path d="M 101.98527174616119 120.90594882070398 l 2.6480002907651543 27.88482668077562 a49.010274267789455,49.010274267789455 0 0,0 -0.8405394650757083,0.0725252818523495 l -2.1676165079479044 -27.926276214906633" fill="#fffd17" stroke="none" /><path d="M 101.62511606390274 120.93702456842531 l 3.8847453815609674 50.04873885776005 a71.19927796225579,71.19927796225579 0 0,0 -1.2227195732781655,0.08432590057935602 l -3.0226630475038716 -50.108193102855694" fill="#39ff8d" stroke="none" /><line stroke="#e1ed5e" stroke-width="0.3" x1="102.19456741930631" x2="102.32365962044197" y1="184.97166512339345" y2="189.96999836594603" /><path d="M 102.22038585953345 185.97133177190398 a86.0,86.0 0 0,1 -42.740103519485714,-10.115201625700543" fill="none" id="id7" stroke="none" /><text fill="#e1ed5e" style="font-size:6.75px; font-family:Arial;" text-anchor="middle"><textPath startOffset="22.20632615414155" xlink:href="#id7">July</textPath></text><path d="M 100.18074693466247 120.99922214144158 l 0.21663863433536007 25.169128402217606 a46.17006072351045,46.17006072351045 0 0,0 -0.7947711379956137,0.0 l 0.21663863433534272 -25.169128402217606" fill="#ffd113" stroke="none" /><path d="M 99.45781275523022 120.99299961872073 l -0.5497237495834952 21.28480626708257 a42.291903954980015,42.291903954980015 0 0,0 -0.727581151803093,-0.025059365993147516 l 0.9160252530612313 -21.27219010266333" fill="#ff930d" stroke="none" /><path d="M 99.09653310690486 120.98055641714683 l -0.9238876618841338 21.454773120529605 a42.47465618037182,42.47465618037182 0 0,0 -0.7301836986261414,-0.03774215676356065 l 1.2930594289237642 -21.435691157003845" fill="#ff960d" stroke="none" /><path d="M 98.01472825383883 120.90594882070398 l -1.3977169887486633 14.718690219165458 a35.78490630840769,35.78490630840769 0 0,0 -0.6127183734298227,-0.06351076466027554 l 1.6508679587840795 -14.692450086049421" fill="#ff2503" stroke="none" /><path d="M 97.2962882734958 120.8252237178851 l -5.440867931778395 41.908052100382115 a63.25976661908341,63.25976661908341 0 0,0 -1.0786435121184512,-0.1494901621575439 l 6.161440035083677 -41.808187372731965" fill="#40ff2d" stroke="none" /><path d="M 96.93821686468263 120.77559828337769 l -2.5956985371832157 17.613001212014286 a38.80324303576042,38.80324303576042 0 0,0 -0.6599584184788663,-0.10307193223601649 l 2.8984928192705994 -17.565710972431162" fill="#ff5908" stroke="none" /><path d="M 96.58105272829116 120.7198165907248 l -3.4410138797437253 20.85354666461202 a42.135538436806854,42.135538436806854 0 0,0 -0.7146007310403683,-0.12424249689475532 l 3.7994635822561436 -20.791225589196255" fill="#ff910d" stroke="none" /><path d="M 92.06813273071674 119.44442032107085 l -10.146300375461298 24.872948891659394 a47.86281812982745,47.86281812982745 0 0,0 -0.7601721845323691,-0.317752034786321 l 10.57294401949113 -24.6946118138531" fill="#ffeb16" stroke="none" /><path d="M 91.7346041902142 119.30500536409082 l -7.4080967116586045 17.302661608407504 a39.82184888963744,39.82184888963744 0 0,0 -0.6278186125839265,-0.27521722986849295 l 7.704835998900275 -17.172579825244558" fill="#ff6a09" stroke="none" /><path d="M 91.07499286063937 119.00905698771935 l -17.81135821172389 37.93578178578323 a62.90904462099925,62.90904462099925 0 0,0 -0.9762505100091033,-0.4686595714501686 l 18.461721389733235 -37.6235679378335" fill="#44ff2d" stroke="none" /><line stroke="#e1ed5e" stroke-width="0.3" x1="58.666819895761336" x2="56.23545636021788" y1="174.27360380694188" y2="178.64263932499728" /><path d="M 58.180547188652646 175.14741091055294 a86.0,86.0 0 0,1 -31.652253787137756,-30.449443065178592" fill="none" id="id8" stroke="none" /><text fill="#e1ed5e" style="font-size:6.75px; font-family:Arial;" text-anchor="middle"><textPath startOffset="22.20632615414155" xlink:href="#id8">August</textPath></text><path d="M 89.7882731507175 118.34994917583269 l -8.293329255253346 14.902687133962859 a38.054893548445946,38.054893548445946 0 0,0 -0.5696477481731513,-0.32346085830570676 l 8.548625770347705 -14.75772310986252" fill="#ff4c07" stroke="none" /><path d="M 89.1626897886671 117.98757091392108 l -15.99973444186647 26.556069012034115 a52.0034885711619,52.0034885711619 0 0,0 -0.7627693407619204,-0.4685552287058314 l 16.4544829825607 -26.276725316499903" fill="#d5ff1c" stroke="none" /><path d="M 88.24862548938628 117.40417183066458 l -11.756601996736096 17.411913909400496 a42.00934164837236,42.00934164837236 0 0,0 -0.5958187234044091,-0.40980955092273064 l 12.054577604763397 -17.206963569112663" fill="#ff8f0d" stroke="none" /><path d="M 86.79598089348748 116.32954008644616 l -26.56142003318232 32.84876897602007 a63.24394225707489,63.24394225707489 0 0,0 -0.8406320701211638,-0.6917829637697482 l 27.12292223184817 -32.38669089339314" fill="#40ff2d" stroke="none" /><path d="M 86.51685102203217 116.09983520530335 l -14.187070458012915 16.940367327637507 a43.09635746850397,43.09635746850397 0 0,0 -0.5646331320648403,-0.4811926045998632 l 14.476569066654813 -16.69365033281469" fill="#ffa00e" stroke="none" /><path d="M 86.24171649860922 115.8653595955263 l -11.86801529475162 13.685597503308228 a39.11478308065031,39.11478308065031 0 0,0 -0.504874336590966,-0.4454929013089703 l 12.101831984249174 -13.47928146022697" fill="#ff5f08" stroke="none" /><path d="M 85.97065885151581 115.62618273729859 l -41.816792971235245 46.576445860175404 a83.59400517114238,83.59400517114238 0 0,0 -1.0624417924784755,-0.9705153871773184 l 42.612334313180575 -45.84973770641151" fill="#4cd7ff" stroke="none" /><path d="M 85.44109423537348 115.13401014063109 l -16.63295942779904 17.289992855137736 a44.991648385584575,44.991648385584575 0 0,0 -0.5535045001479665,-0.5417206506494759 l 16.9281138803228 -17.00112210156569" fill="#ffbf11" stroke="none" /><path d="M 84.67929136418377 114.36230785411682 l -30.504700712577687 28.596451577149665 a62.81260346316889,62.81260346316889 0 0,0 -0.7326748972115777,-0.7951738958735332 l 30.992422017784993 -28.067126426474786" fill="#45ff2d" stroke="none" /><path d="M 84.19399662182784 113.82643327865904 l -47.4180101345165 41.4792998359771 a84.0,84.0 0 0,0 -0.942629961716885,-1.0964916033538787 l 48.12498260580416 -40.65693113346169" fill="#4dd2ff" stroke="none" /><line stroke="#e1ed5e" stroke-width="0.3" x1="26.63291911575756" x2="22.317208475507996" y1="142.92168965132927" y2="145.44649492493687" /><path d="M 25.769776987707644 143.4266507060508 a86.0,86.0 0 0,1 -11.730757126820373,-40.83630448921669" fill="none" id="id9" stroke="none" /><text fill="#e1ed5e" style="font-size:6.75px; font-family:Arial;" text-anchor="middle"><textPath startOffset="21.46611528233685" xlink:href="#id9">September</textPath></text><line stroke="#e1ed5e" stroke-width="0.3" x1="15.007084014347285" x2="10.007500721073583" y1="101.09737516637583" y2="101.16192664675087" /><path d="M 14.007167355692545 101.11028546245083 a86.0,86.0 0 0,1 10.666146001902534,-42.60595125391555" fill="none" id="id10" stroke="none" /><text fill="#e1ed5e" style="font-size:6.75px; font-family:Arial;" text-anchor="middle"><textPath startOffset="22.20632615414155" xlink:href="#id10">October</textPath></text><line stroke="#e1ed5e" stroke-width="0.3" x1="26.266209847984243" x2="21.928928074336255" y1="57.711370442889674" y2="55.22380399835377" /><path d="M 25.398753493254645 57.213857153982495 a86.0,86.0 0 0,1 29.58750427330803,-30.492523968695096" fill="none" id="id11" stroke="none" /><text fill="#e1ed5e" style="font-size:6.75px; font-family:Arial;" text-anchor="middle"><textPath startOffset="21.46611528233685" xlink:href="#id11">November</textPath></text><line stroke="#e1ed5e" stroke-width="0.3" x1="56.762969772571076" x2="54.21961505331055" y1="26.818313649435495" y2="22.513508569990535" /><path d="M 56.25429882871897 25.957352633546506 a86.0,86.0 0 0,1 42.265352541879196,-11.944610805530505" fill="none" id="id12" stroke="none" /><text fill="#e1ed5e" style="font-size:6.75px; font-family:Arial;" text-anchor="middle"><textPath startOffset="22.20632615414155" xlink:href="#id12">December</textPath></text></svg>